<svg xmlns="http://www.w3.org/2000/svg" xmlns:xlink="http://www.w3.org/1999/xlink"><defs><clipPath id="a"><path fill="#fff" transform="rotate(-90 13.5 4.5)" d="M0 0h12v7.4H0z"/></clipPath></defs><symbol id="arrow"><g fill="currentcolor"><g clip-path="url(#a)"><path fill-rule="evenodd" clip-rule="evenodd" d="m9 7.4 4.6 4.6L9 16.6l1.4 1.4 6-6-6-6L9 7.4Z"/></g></g></symbol><symbol id="email"><g fill="currentcolor"><path d="M24.227 0H1.773C.768 0 0 .765 0 1.765v16.47C0 19.235.768 20 1.773 20h22.454C25.232 20 26 19.235 26 18.235V1.765C26 .765 25.232 0 24.227 0Zm0 17-4.668-4.647a.86.86 0 0 0-1.24 0 .85.85 0 0 0 0 1.235l4.667 4.647H3.014l4.668-4.647a.85.85 0 0 0 0-1.235.86.86 0 0 0-1.241 0L1.773 17V5.706l10.636 8a.956.956 0 0 0 .532.176.955.955 0 0 0 .532-.176l10.754-8V17Zm0-15.235V3.47l-11.286 8.352L1.773 3.471V1.765h22.454Z"/></g></symbol><symbol id="icon-close" viewBox="0 0 20 20"><path d="M.293 18.291a1 1 0 1 0 1.414 1.414L10 11.413l8.292 8.292a1 1 0 1 0 1.414-1.414l-8.292-8.292 8.292-8.292A1 1 0 1 0 18.291.293L9.999 8.585 1.707.293A1 1 0 1 0 .293 1.707L8.585 10 .293 18.291z"/></symbol><symbol id="Icon-play"><g fill="none"><path fill-rule="evenodd" clip-rule="evenodd" d="m.6.4 13 9.1-13 9.1V.4Z" fill="#070707"/></g></symbol><symbol id="phone"><g fill="currentcolor"><path d="M3.456 6.624c-.084-1.198.182-2.378.885-3.327.61-.86 1.404-1.33 2.362-1.605.806-.24 1.334.054 1.567.95.332 1.34.806 2.68.978 4.092.055.62-.347 1.5-.782 1.952-1.09 1.073-.863 1.854-.036 3.478.257.524.664 1.43 1.459 2.628.827 1.207 1.265 1.855 2.328 1.306 1.18-.594 2.041-.212 2.932.746.604.693 1.269 1.288 1.873 1.98.872 1.03.833 1.74.15 2.467-1.229 1.34-3.258 1.783-4.768.886-.833-.489-1.664-1.128-2.325-1.874-2.914-3.32-5.016-7.182-6.281-11.54a10.989 10.989 0 0 1-.342-2.139Z"/></g></symbol></svg>